<mxfile host="65bd71144e">
    <diagram id="iIiwLCl-KtBgN-D8_L1g" name="Page-1">
        <mxGraphModel dx="692" dy="504" grid="1" gridSize="10" guides="1" tooltips="1" connect="1" arrows="1" fold="1" page="1" pageScale="1" pageWidth="1200" pageHeight="1920" math="0" shadow="0">
            <root>
                <mxCell id="0"/>
                <mxCell id="1" parent="0"/>
                <mxCell id="2WGV7Rzfy_3PZK6U7CEp-2" value="VertexInput" style="rounded=1;whiteSpace=wrap;html=1;" parent="1" vertex="1">
                    <mxGeometry x="200" y="120" width="120" height="60" as="geometry"/>
                </mxCell>
                <mxCell id="2WGV7Rzfy_3PZK6U7CEp-28" style="edgeStyle=orthogonalEdgeStyle;rounded=0;orthogonalLoop=1;jettySize=auto;html=1;entryX=1;entryY=0.5;entryDx=0;entryDy=0;" parent="1" source="2WGV7Rzfy_3PZK6U7CEp-3" target="2WGV7Rzfy_3PZK6U7CEp-2" edge="1">
                    <mxGeometry relative="1" as="geometry"/>
                </mxCell>
                <mxCell id="2WGV7Rzfy_3PZK6U7CEp-31" style="edgeStyle=orthogonalEdgeStyle;rounded=0;orthogonalLoop=1;jettySize=auto;html=1;entryX=0;entryY=0.5;entryDx=0;entryDy=0;" parent="1" source="2WGV7Rzfy_3PZK6U7CEp-3" target="2WGV7Rzfy_3PZK6U7CEp-8" edge="1">
                    <mxGeometry relative="1" as="geometry">
                        <mxPoint x="370" y="190" as="targetPoint"/>
                        <Array as="points">
                            <mxPoint x="360" y="150"/>
                        </Array>
                    </mxGeometry>
                </mxCell>
                <mxCell id="2WGV7Rzfy_3PZK6U7CEp-3" value="&lt;span&gt;GraphMiddleware&lt;/span&gt;" style="rounded=1;whiteSpace=wrap;html=1;" parent="1" vertex="1">
                    <mxGeometry x="300" y="40" width="120" height="60" as="geometry"/>
                </mxCell>
                <mxCell id="2WGV7Rzfy_3PZK6U7CEp-32" value="" style="edgeStyle=orthogonalEdgeStyle;rounded=0;orthogonalLoop=1;jettySize=auto;html=1;" parent="1" source="2WGV7Rzfy_3PZK6U7CEp-8" edge="1">
                    <mxGeometry relative="1" as="geometry">
                        <mxPoint x="460" y="230" as="targetPoint"/>
                    </mxGeometry>
                </mxCell>
                <mxCell id="2WGV7Rzfy_3PZK6U7CEp-8" value="CreateVertex" style="rounded=1;whiteSpace=wrap;html=1;" parent="1" vertex="1">
                    <mxGeometry x="400" y="120" width="120" height="60" as="geometry"/>
                </mxCell>
                <mxCell id="2WGV7Rzfy_3PZK6U7CEp-19" value="Layout" style="text;html=1;strokeColor=none;fillColor=none;align=center;verticalAlign=middle;whiteSpace=wrap;rounded=0;" parent="1" vertex="1">
                    <mxGeometry x="525" y="240" width="55" height="20" as="geometry"/>
                </mxCell>
                <mxCell id="2WGV7Rzfy_3PZK6U7CEp-25" value="Dynamic Drawing: state of drag translate + useDrawConnector" style="text;html=1;strokeColor=none;fillColor=none;align=center;verticalAlign=middle;whiteSpace=wrap;rounded=0;" parent="1" vertex="1">
                    <mxGeometry x="525" y="370" width="340" height="20" as="geometry"/>
                </mxCell>
                <mxCell id="2WGV7Rzfy_3PZK6U7CEp-36" style="edgeStyle=orthogonalEdgeStyle;rounded=0;orthogonalLoop=1;jettySize=auto;html=1;" parent="1" source="2WGV7Rzfy_3PZK6U7CEp-26" target="2WGV7Rzfy_3PZK6U7CEp-33" edge="1">
                    <mxGeometry relative="1" as="geometry"/>
                </mxCell>
                <mxCell id="2WGV7Rzfy_3PZK6U7CEp-37" style="edgeStyle=orthogonalEdgeStyle;rounded=0;orthogonalLoop=1;jettySize=auto;html=1;" parent="1" source="2WGV7Rzfy_3PZK6U7CEp-26" target="2WGV7Rzfy_3PZK6U7CEp-34" edge="1">
                    <mxGeometry relative="1" as="geometry"/>
                </mxCell>
                <mxCell id="2WGV7Rzfy_3PZK6U7CEp-45" style="edgeStyle=orthogonalEdgeStyle;rounded=0;orthogonalLoop=1;jettySize=auto;html=1;dashed=1;curved=1;" parent="1" source="2WGV7Rzfy_3PZK6U7CEp-26" edge="1">
                    <mxGeometry relative="1" as="geometry">
                        <mxPoint x="260" y="350" as="targetPoint"/>
                        <Array as="points">
                            <mxPoint x="260" y="290"/>
                        </Array>
                    </mxGeometry>
                </mxCell>
                <mxCell id="2WGV7Rzfy_3PZK6U7CEp-26" value="&lt;span&gt;DrawGraph&lt;/span&gt;" style="shape=document;whiteSpace=wrap;html=1;boundedLbl=1;" parent="1" vertex="1">
                    <mxGeometry x="400" y="240" width="120" height="80" as="geometry"/>
                </mxCell>
                <mxCell id="2WGV7Rzfy_3PZK6U7CEp-38" style="edgeStyle=orthogonalEdgeStyle;rounded=0;orthogonalLoop=1;jettySize=auto;html=1;dashed=1;entryX=0.5;entryY=0;entryDx=0;entryDy=0;" parent="1" source="2WGV7Rzfy_3PZK6U7CEp-33" target="2WGV7Rzfy_3PZK6U7CEp-43" edge="1">
                    <mxGeometry relative="1" as="geometry">
                        <mxPoint x="460" y="580" as="targetPoint"/>
                    </mxGeometry>
                </mxCell>
                <mxCell id="2WGV7Rzfy_3PZK6U7CEp-47" style="edgeStyle=orthogonalEdgeStyle;rounded=0;orthogonalLoop=1;jettySize=auto;html=1;dashed=1;curved=1;" parent="1" source="2WGV7Rzfy_3PZK6U7CEp-33" edge="1">
                    <mxGeometry relative="1" as="geometry">
                        <mxPoint x="260" y="520" as="targetPoint"/>
                        <Array as="points">
                            <mxPoint x="260" y="440"/>
                        </Array>
                    </mxGeometry>
                </mxCell>
                <mxCell id="2WGV7Rzfy_3PZK6U7CEp-33" value="DrawVertex&lt;br&gt;" style="shape=tape;whiteSpace=wrap;html=1;" parent="1" vertex="1">
                    <mxGeometry x="400" y="360" width="120" height="100" as="geometry"/>
                </mxCell>
                <mxCell id="2WGV7Rzfy_3PZK6U7CEp-34" value="DrawArrow" style="shape=tape;whiteSpace=wrap;html=1;" parent="1" vertex="1">
                    <mxGeometry x="40" y="360" width="120" height="100" as="geometry"/>
                </mxCell>
                <mxCell id="2WGV7Rzfy_3PZK6U7CEp-39" value="Drag &amp;amp; Draw Event Listener" style="text;html=1;strokeColor=none;fillColor=none;align=center;verticalAlign=middle;whiteSpace=wrap;rounded=0;" parent="1" vertex="1">
                    <mxGeometry x="525" y="600" width="155" height="20" as="geometry"/>
                </mxCell>
                <mxCell id="2WGV7Rzfy_3PZK6U7CEp-42" value="useDrawConnector" style="ellipse;whiteSpace=wrap;html=1;" parent="1" vertex="1">
                    <mxGeometry x="200" y="360" width="120" height="80" as="geometry"/>
                </mxCell>
                <mxCell id="2WGV7Rzfy_3PZK6U7CEp-43" value="useDrag" style="ellipse;whiteSpace=wrap;html=1;" parent="1" vertex="1">
                    <mxGeometry x="400" y="600" width="120" height="80" as="geometry"/>
                </mxCell>
                <mxCell id="2WGV7Rzfy_3PZK6U7CEp-62" style="edgeStyle=orthogonalEdgeStyle;curved=1;rounded=0;orthogonalLoop=1;jettySize=auto;html=1;entryX=0;entryY=0.5;entryDx=0;entryDy=0;dashed=1;exitX=0.5;exitY=1;exitDx=0;exitDy=0;" parent="1" source="2WGV7Rzfy_3PZK6U7CEp-44" target="2WGV7Rzfy_3PZK6U7CEp-43" edge="1">
                    <mxGeometry relative="1" as="geometry">
                        <Array as="points">
                            <mxPoint x="260" y="640"/>
                        </Array>
                    </mxGeometry>
                </mxCell>
                <mxCell id="2WGV7Rzfy_3PZK6U7CEp-44" value="useDrawConnector" style="ellipse;whiteSpace=wrap;html=1;" parent="1" vertex="1">
                    <mxGeometry x="200" y="520" width="120" height="80" as="geometry"/>
                </mxCell>
                <mxCell id="2WGV7Rzfy_3PZK6U7CEp-50" value="User's vertex name input" style="text;html=1;strokeColor=none;fillColor=none;align=center;verticalAlign=middle;whiteSpace=wrap;rounded=0;" parent="1" vertex="1">
                    <mxGeometry x="50" y="120" width="150" height="20" as="geometry"/>
                </mxCell>
                <mxCell id="2WGV7Rzfy_3PZK6U7CEp-52" value="map()" style="text;html=1;strokeColor=none;fillColor=none;align=center;verticalAlign=middle;whiteSpace=wrap;rounded=0;" parent="1" vertex="1">
                    <mxGeometry x="420" y="330" width="40" height="20" as="geometry"/>
                </mxCell>
                <mxCell id="2WGV7Rzfy_3PZK6U7CEp-53" value="map()" style="text;html=1;strokeColor=none;fillColor=none;align=center;verticalAlign=middle;whiteSpace=wrap;rounded=0;" parent="1" vertex="1">
                    <mxGeometry x="60" y="330" width="40" height="20" as="geometry"/>
                </mxCell>
                <mxCell id="2WGV7Rzfy_3PZK6U7CEp-54" value="useEffect()" style="text;html=1;strokeColor=none;fillColor=none;align=center;verticalAlign=middle;whiteSpace=wrap;rounded=0;" parent="1" vertex="1">
                    <mxGeometry x="280" y="320" width="60" height="20" as="geometry"/>
                </mxCell>
                <mxCell id="2WGV7Rzfy_3PZK6U7CEp-55" value="as Callback" style="text;html=1;strokeColor=none;fillColor=none;align=center;verticalAlign=middle;whiteSpace=wrap;rounded=0;" parent="1" vertex="1">
                    <mxGeometry x="280" y="640" width="70" height="20" as="geometry"/>
                </mxCell>
                <mxCell id="3" value="PositionContext" style="shape=hexagon;perimeter=hexagonPerimeter2;whiteSpace=wrap;html=1;fixedSize=1;" parent="1" vertex="1">
                    <mxGeometry x="560" y="40" width="120" height="70" as="geometry"/>
                </mxCell>
                <mxCell id="13" value="Context" style="text;html=1;strokeColor=#2D7600;fillColor=#60a917;align=center;verticalAlign=middle;whiteSpace=wrap;rounded=0;fontColor=#ffffff;" parent="1" vertex="1">
                    <mxGeometry x="680" y="30" width="40" height="20" as="geometry"/>
                </mxCell>
                <mxCell id="14" value="Context" style="text;html=1;strokeColor=#2D7600;fillColor=#60a917;align=center;verticalAlign=middle;whiteSpace=wrap;rounded=0;fontColor=#ffffff;" parent="1" vertex="1">
                    <mxGeometry x="420" y="30" width="40" height="20" as="geometry"/>
                </mxCell>
                <mxCell id="15" value="Context" style="text;html=1;strokeColor=#2D7600;fillColor=#60a917;align=center;verticalAlign=middle;whiteSpace=wrap;rounded=0;fontColor=#ffffff;" parent="1" vertex="1">
                    <mxGeometry x="520" y="350" width="40" height="20" as="geometry"/>
                </mxCell>
                <mxCell id="17" value="Context" style="text;html=1;strokeColor=#2D7600;fillColor=#60a917;align=center;verticalAlign=middle;whiteSpace=wrap;rounded=0;fontColor=#ffffff;" parent="1" vertex="1">
                    <mxGeometry x="160" y="350" width="40" height="20" as="geometry"/>
                </mxCell>
                <mxCell id="18" value="Init Drawing: &lt;br&gt;useEffect +&amp;nbsp; &lt;br&gt;useDrawConnector" style="text;html=1;strokeColor=none;fillColor=none;align=center;verticalAlign=middle;whiteSpace=wrap;rounded=0;" vertex="1" parent="1">
                    <mxGeometry x="30" y="470" width="140" height="20" as="geometry"/>
                </mxCell>
            </root>
        </mxGraphModel>
    </diagram>
</mxfile>